# xmcd CD database file
#
# Track frame offsets:
#	150
#	13934
#	29800
#	53892
#	74188
#	110159
#	135438
#	157395
#	180072
#	194452
#	243738
#	267197
#	293896
#	314253
#
# Disc length: 4438 seconds
#
# Revision: 0
# Processed by: cddbd v1.5.2PL0 Copyright (c) Steve Scherf et al.
# Submitted via: CDex 1.70beta2
#
DISCID=de11540e
DTITLE=Beccy Cole - Live @ Lizotte's
DYEAR=2007
DGENRE=Country
TTITLE0=Men don't dance
TTITLE1=Better woman
TTITLE2=Blackwood Hill
TTITLE3=Lifeboat
TTITLE4=Sorry I asked
TTITLE5=Girls out here
TTITLE6=Opposite prayers
TTITLE7=Those memories of you (featuring Kasey Chambers)
TTITLE8=Natural woman
TTITLE9=Lazy bones
TTITLE10=Galleries of pink galahs (featuring Gina Jeffreys and Sara Storer)
TTITLE11=What's up
TTITLE12=Say you love me
TTITLE13=Poster girl (Wrong side of the world)
EXTD=YEAR: 2007
EXTT0=
EXTT1=
EXTT2=
EXTT3=
EXTT4=
EXTT5=
EXTT6=
EXTT7=
EXTT8=
EXTT9=
EXTT10=
EXTT11=
EXTT12=
EXTT13=
PLAYORDER=
